<mxfile host="app.diagrams.net" agent="Mozilla/5.0 (Windows NT 10.0; Win64; x64) AppleWebKit/537.36 (KHTML, like Gecko) Chrome/132.0.0.0 Safari/537.36" version="26.0.10">
  <diagram name="Página-1" id="8Lqu3SqS29Y4uizOfY7u">
    <mxGraphModel dx="1434" dy="1959" grid="1" gridSize="10" guides="1" tooltips="1" connect="1" arrows="1" fold="1" page="1" pageScale="1" pageWidth="827" pageHeight="1169" math="0" shadow="0">
      <root>
        <mxCell id="0" />
        <mxCell id="1" parent="0" />
        <mxCell id="I0EjVSDtgOrj4DoW6K94-7" style="edgeStyle=orthogonalEdgeStyle;rounded=0;orthogonalLoop=1;jettySize=auto;html=1;entryX=0.5;entryY=0;entryDx=0;entryDy=0;" parent="1" source="I0EjVSDtgOrj4DoW6K94-19" target="I0EjVSDtgOrj4DoW6K94-2" edge="1">
          <mxGeometry relative="1" as="geometry" />
        </mxCell>
        <mxCell id="I0EjVSDtgOrj4DoW6K94-1" value="Preparar Cena" style="rounded=0;whiteSpace=wrap;html=1;" parent="1" vertex="1">
          <mxGeometry x="100" y="40" width="120" height="60" as="geometry" />
        </mxCell>
        <mxCell id="I0EjVSDtgOrj4DoW6K94-5" value="T" style="edgeStyle=orthogonalEdgeStyle;rounded=0;orthogonalLoop=1;jettySize=auto;html=1;" parent="1" source="I0EjVSDtgOrj4DoW6K94-2" target="I0EjVSDtgOrj4DoW6K94-3" edge="1">
          <mxGeometry relative="1" as="geometry" />
        </mxCell>
        <mxCell id="I0EjVSDtgOrj4DoW6K94-6" value="F" style="edgeStyle=orthogonalEdgeStyle;rounded=0;orthogonalLoop=1;jettySize=auto;html=1;entryX=0;entryY=0.5;entryDx=0;entryDy=0;" parent="1" source="I0EjVSDtgOrj4DoW6K94-2" target="I0EjVSDtgOrj4DoW6K94-4" edge="1">
          <mxGeometry relative="1" as="geometry" />
        </mxCell>
        <mxCell id="I0EjVSDtgOrj4DoW6K94-2" value="¿Hay&lt;div&gt;Ingredientes?&lt;/div&gt;" style="rhombus;whiteSpace=wrap;html=1;" parent="1" vertex="1">
          <mxGeometry x="100" y="210" width="120" height="80" as="geometry" />
        </mxCell>
        <mxCell id="I0EjVSDtgOrj4DoW6K94-10" style="edgeStyle=orthogonalEdgeStyle;rounded=0;orthogonalLoop=1;jettySize=auto;html=1;exitX=0.5;exitY=1;exitDx=0;exitDy=0;entryX=0.5;entryY=0;entryDx=0;entryDy=0;" parent="1" source="I0EjVSDtgOrj4DoW6K94-3" target="I0EjVSDtgOrj4DoW6K94-9" edge="1">
          <mxGeometry relative="1" as="geometry" />
        </mxCell>
        <mxCell id="I0EjVSDtgOrj4DoW6K94-3" value="Cocinar&lt;div&gt;Ingredientes&lt;/div&gt;" style="rounded=0;whiteSpace=wrap;html=1;" parent="1" vertex="1">
          <mxGeometry x="100" y="330" width="120" height="60" as="geometry" />
        </mxCell>
        <mxCell id="I0EjVSDtgOrj4DoW6K94-8" style="edgeStyle=orthogonalEdgeStyle;rounded=0;orthogonalLoop=1;jettySize=auto;html=1;exitX=0.5;exitY=1;exitDx=0;exitDy=0;entryX=1;entryY=0.5;entryDx=0;entryDy=0;" parent="1" source="I0EjVSDtgOrj4DoW6K94-4" target="I0EjVSDtgOrj4DoW6K94-3" edge="1">
          <mxGeometry relative="1" as="geometry" />
        </mxCell>
        <mxCell id="I0EjVSDtgOrj4DoW6K94-4" value="Ir al super" style="rounded=0;whiteSpace=wrap;html=1;" parent="1" vertex="1">
          <mxGeometry x="260" y="220" width="120" height="60" as="geometry" />
        </mxCell>
        <mxCell id="I0EjVSDtgOrj4DoW6K94-12" value="F" style="edgeStyle=orthogonalEdgeStyle;rounded=0;orthogonalLoop=1;jettySize=auto;html=1;" parent="1" source="I0EjVSDtgOrj4DoW6K94-9" target="I0EjVSDtgOrj4DoW6K94-11" edge="1">
          <mxGeometry relative="1" as="geometry" />
        </mxCell>
        <mxCell id="I0EjVSDtgOrj4DoW6K94-16" value="T" style="edgeStyle=orthogonalEdgeStyle;rounded=0;orthogonalLoop=1;jettySize=auto;html=1;exitX=0;exitY=0.5;exitDx=0;exitDy=0;entryX=0;entryY=0.5;entryDx=0;entryDy=0;" parent="1" source="I0EjVSDtgOrj4DoW6K94-9" target="I0EjVSDtgOrj4DoW6K94-13" edge="1">
          <mxGeometry relative="1" as="geometry">
            <Array as="points">
              <mxPoint x="80" y="465" />
              <mxPoint x="80" y="570" />
            </Array>
          </mxGeometry>
        </mxCell>
        <mxCell id="I0EjVSDtgOrj4DoW6K94-9" value="¿Está&lt;div&gt;Cocinada?&lt;/div&gt;" style="rhombus;whiteSpace=wrap;html=1;" parent="1" vertex="1">
          <mxGeometry x="110" y="420" width="100" height="90" as="geometry" />
        </mxCell>
        <mxCell id="I0EjVSDtgOrj4DoW6K94-15" style="edgeStyle=orthogonalEdgeStyle;rounded=0;orthogonalLoop=1;jettySize=auto;html=1;exitX=0.5;exitY=1;exitDx=0;exitDy=0;entryX=0.5;entryY=1;entryDx=0;entryDy=0;" parent="1" source="I0EjVSDtgOrj4DoW6K94-11" target="I0EjVSDtgOrj4DoW6K94-9" edge="1">
          <mxGeometry relative="1" as="geometry" />
        </mxCell>
        <mxCell id="I0EjVSDtgOrj4DoW6K94-11" value="Calentar&lt;div&gt;Comida&lt;/div&gt;" style="rounded=0;whiteSpace=wrap;html=1;" parent="1" vertex="1">
          <mxGeometry x="260" y="435" width="120" height="60" as="geometry" />
        </mxCell>
        <mxCell id="I0EjVSDtgOrj4DoW6K94-18" style="edgeStyle=orthogonalEdgeStyle;rounded=0;orthogonalLoop=1;jettySize=auto;html=1;exitX=0.5;exitY=1;exitDx=0;exitDy=0;entryX=0.5;entryY=0;entryDx=0;entryDy=0;" parent="1" source="I0EjVSDtgOrj4DoW6K94-13" target="I0EjVSDtgOrj4DoW6K94-17" edge="1">
          <mxGeometry relative="1" as="geometry" />
        </mxCell>
        <mxCell id="I0EjVSDtgOrj4DoW6K94-13" value="Servir&lt;div&gt;Comida&lt;/div&gt;" style="rounded=0;whiteSpace=wrap;html=1;" parent="1" vertex="1">
          <mxGeometry x="100" y="540" width="120" height="60" as="geometry" />
        </mxCell>
        <mxCell id="I0EjVSDtgOrj4DoW6K94-22" style="edgeStyle=orthogonalEdgeStyle;rounded=0;orthogonalLoop=1;jettySize=auto;html=1;entryX=0.5;entryY=0;entryDx=0;entryDy=0;" parent="1" source="I0EjVSDtgOrj4DoW6K94-17" target="I0EjVSDtgOrj4DoW6K94-21" edge="1">
          <mxGeometry relative="1" as="geometry" />
        </mxCell>
        <mxCell id="I0EjVSDtgOrj4DoW6K94-17" value="Comer Comida" style="rounded=0;whiteSpace=wrap;html=1;" parent="1" vertex="1">
          <mxGeometry x="100" y="620" width="120" height="60" as="geometry" />
        </mxCell>
        <mxCell id="I0EjVSDtgOrj4DoW6K94-20" value="" style="edgeStyle=orthogonalEdgeStyle;rounded=0;orthogonalLoop=1;jettySize=auto;html=1;entryX=0.5;entryY=0;entryDx=0;entryDy=0;" parent="1" source="I0EjVSDtgOrj4DoW6K94-1" target="I0EjVSDtgOrj4DoW6K94-19" edge="1">
          <mxGeometry relative="1" as="geometry">
            <mxPoint x="160" y="120" as="sourcePoint" />
            <mxPoint x="160" y="210" as="targetPoint" />
          </mxGeometry>
        </mxCell>
        <mxCell id="I0EjVSDtgOrj4DoW6K94-19" value="Buscar&lt;div&gt;Ingredientes&lt;/div&gt;" style="rounded=0;whiteSpace=wrap;html=1;" parent="1" vertex="1">
          <mxGeometry x="100" y="130" width="120" height="60" as="geometry" />
        </mxCell>
        <mxCell id="I0EjVSDtgOrj4DoW6K94-24" value="T" style="edgeStyle=orthogonalEdgeStyle;rounded=0;orthogonalLoop=1;jettySize=auto;html=1;exitX=1;exitY=0.5;exitDx=0;exitDy=0;entryX=0;entryY=0.5;entryDx=0;entryDy=0;" parent="1" source="I0EjVSDtgOrj4DoW6K94-21" target="I0EjVSDtgOrj4DoW6K94-23" edge="1">
          <mxGeometry relative="1" as="geometry" />
        </mxCell>
        <mxCell id="I0EjVSDtgOrj4DoW6K94-25" value="F" style="edgeStyle=orthogonalEdgeStyle;rounded=0;orthogonalLoop=1;jettySize=auto;html=1;exitX=0;exitY=0.5;exitDx=0;exitDy=0;entryX=0;entryY=0.5;entryDx=0;entryDy=0;" parent="1" source="I0EjVSDtgOrj4DoW6K94-21" target="I0EjVSDtgOrj4DoW6K94-19" edge="1">
          <mxGeometry relative="1" as="geometry">
            <Array as="points">
              <mxPoint x="50" y="750" />
              <mxPoint x="50" y="160" />
            </Array>
          </mxGeometry>
        </mxCell>
        <mxCell id="I0EjVSDtgOrj4DoW6K94-21" value="¿Lleno?" style="rhombus;whiteSpace=wrap;html=1;" parent="1" vertex="1">
          <mxGeometry x="120" y="710" width="80" height="80" as="geometry" />
        </mxCell>
        <mxCell id="I0EjVSDtgOrj4DoW6K94-29" style="edgeStyle=orthogonalEdgeStyle;rounded=0;orthogonalLoop=1;jettySize=auto;html=1;exitX=0.5;exitY=1;exitDx=0;exitDy=0;entryX=0.5;entryY=0;entryDx=0;entryDy=0;" parent="1" source="I0EjVSDtgOrj4DoW6K94-23" target="I0EjVSDtgOrj4DoW6K94-28" edge="1">
          <mxGeometry relative="1" as="geometry" />
        </mxCell>
        <mxCell id="I0EjVSDtgOrj4DoW6K94-23" value="Feliz" style="rounded=0;whiteSpace=wrap;html=1;" parent="1" vertex="1">
          <mxGeometry x="260" y="720" width="120" height="60" as="geometry" />
        </mxCell>
        <mxCell id="I0EjVSDtgOrj4DoW6K94-27" style="edgeStyle=orthogonalEdgeStyle;rounded=0;orthogonalLoop=1;jettySize=auto;html=1;exitX=0.5;exitY=1;exitDx=0;exitDy=0;entryX=0.5;entryY=0;entryDx=0;entryDy=0;" parent="1" source="I0EjVSDtgOrj4DoW6K94-26" target="I0EjVSDtgOrj4DoW6K94-1" edge="1">
          <mxGeometry relative="1" as="geometry" />
        </mxCell>
        <mxCell id="I0EjVSDtgOrj4DoW6K94-26" value="Inicio" style="ellipse;whiteSpace=wrap;html=1;" parent="1" vertex="1">
          <mxGeometry x="100" y="-70" width="120" height="80" as="geometry" />
        </mxCell>
        <mxCell id="I0EjVSDtgOrj4DoW6K94-28" value="Inicio" style="ellipse;whiteSpace=wrap;html=1;" parent="1" vertex="1">
          <mxGeometry x="260" y="810" width="120" height="80" as="geometry" />
        </mxCell>
        <mxCell id="I0EjVSDtgOrj4DoW6K94-33" style="edgeStyle=orthogonalEdgeStyle;rounded=0;orthogonalLoop=1;jettySize=auto;html=1;exitX=0.5;exitY=1;exitDx=0;exitDy=0;entryX=0.5;entryY=0;entryDx=0;entryDy=0;" parent="1" source="I0EjVSDtgOrj4DoW6K94-30" target="I0EjVSDtgOrj4DoW6K94-32" edge="1">
          <mxGeometry relative="1" as="geometry" />
        </mxCell>
        <mxCell id="I0EjVSDtgOrj4DoW6K94-30" value="Inicio" style="ellipse;whiteSpace=wrap;html=1;" parent="1" vertex="1">
          <mxGeometry x="800" y="-140" width="120" height="80" as="geometry" />
        </mxCell>
        <mxCell id="I0EjVSDtgOrj4DoW6K94-31" value="Fin" style="ellipse;whiteSpace=wrap;html=1;" parent="1" vertex="1">
          <mxGeometry x="980" y="920" width="120" height="80" as="geometry" />
        </mxCell>
        <mxCell id="I0EjVSDtgOrj4DoW6K94-35" style="edgeStyle=orthogonalEdgeStyle;rounded=0;orthogonalLoop=1;jettySize=auto;html=1;exitX=0.5;exitY=1;exitDx=0;exitDy=0;" parent="1" source="I0EjVSDtgOrj4DoW6K94-32" target="I0EjVSDtgOrj4DoW6K94-34" edge="1">
          <mxGeometry relative="1" as="geometry" />
        </mxCell>
        <mxCell id="I0EjVSDtgOrj4DoW6K94-32" value="Buscar limones" style="rounded=0;whiteSpace=wrap;html=1;" parent="1" vertex="1">
          <mxGeometry x="800" y="-10" width="120" height="60" as="geometry" />
        </mxCell>
        <mxCell id="I0EjVSDtgOrj4DoW6K94-38" value="F" style="edgeStyle=orthogonalEdgeStyle;rounded=0;orthogonalLoop=1;jettySize=auto;html=1;exitX=1;exitY=0.5;exitDx=0;exitDy=0;entryX=0;entryY=0.5;entryDx=0;entryDy=0;" parent="1" source="I0EjVSDtgOrj4DoW6K94-34" target="I0EjVSDtgOrj4DoW6K94-37" edge="1">
          <mxGeometry relative="1" as="geometry" />
        </mxCell>
        <mxCell id="I0EjVSDtgOrj4DoW6K94-39" value="T" style="edgeStyle=orthogonalEdgeStyle;rounded=0;orthogonalLoop=1;jettySize=auto;html=1;exitX=0.5;exitY=1;exitDx=0;exitDy=0;entryX=0.5;entryY=0;entryDx=0;entryDy=0;" parent="1" source="I0EjVSDtgOrj4DoW6K94-34" target="I0EjVSDtgOrj4DoW6K94-40" edge="1">
          <mxGeometry relative="1" as="geometry">
            <mxPoint x="860" y="230" as="targetPoint" />
          </mxGeometry>
        </mxCell>
        <mxCell id="I0EjVSDtgOrj4DoW6K94-34" value="¿hay limones?" style="rhombus;whiteSpace=wrap;html=1;" parent="1" vertex="1">
          <mxGeometry x="810" y="80" width="100" height="90" as="geometry" />
        </mxCell>
        <mxCell id="I0EjVSDtgOrj4DoW6K94-41" style="edgeStyle=orthogonalEdgeStyle;rounded=0;orthogonalLoop=1;jettySize=auto;html=1;exitX=0.5;exitY=1;exitDx=0;exitDy=0;entryX=1;entryY=0.5;entryDx=0;entryDy=0;" parent="1" source="I0EjVSDtgOrj4DoW6K94-37" target="I0EjVSDtgOrj4DoW6K94-40" edge="1">
          <mxGeometry relative="1" as="geometry" />
        </mxCell>
        <mxCell id="I0EjVSDtgOrj4DoW6K94-37" value="Comprar limones" style="rounded=0;whiteSpace=wrap;html=1;" parent="1" vertex="1">
          <mxGeometry x="980" y="95" width="120" height="60" as="geometry" />
        </mxCell>
        <mxCell id="I0EjVSDtgOrj4DoW6K94-44" value="F" style="edgeStyle=orthogonalEdgeStyle;rounded=0;orthogonalLoop=1;jettySize=auto;html=1;" parent="1" source="I0EjVSDtgOrj4DoW6K94-40" target="I0EjVSDtgOrj4DoW6K94-42" edge="1">
          <mxGeometry relative="1" as="geometry" />
        </mxCell>
        <mxCell id="I0EjVSDtgOrj4DoW6K94-46" value="V" style="edgeStyle=orthogonalEdgeStyle;rounded=0;orthogonalLoop=1;jettySize=auto;html=1;exitX=0.5;exitY=1;exitDx=0;exitDy=0;entryX=0.5;entryY=0;entryDx=0;entryDy=0;" parent="1" source="I0EjVSDtgOrj4DoW6K94-40" target="I0EjVSDtgOrj4DoW6K94-45" edge="1">
          <mxGeometry relative="1" as="geometry" />
        </mxCell>
        <mxCell id="I0EjVSDtgOrj4DoW6K94-40" value="¿Hay&amp;nbsp;&lt;div&gt;Azucar?&lt;/div&gt;" style="rhombus;whiteSpace=wrap;html=1;" parent="1" vertex="1">
          <mxGeometry x="810" y="220" width="100" height="90" as="geometry" />
        </mxCell>
        <mxCell id="I0EjVSDtgOrj4DoW6K94-47" style="edgeStyle=orthogonalEdgeStyle;rounded=0;orthogonalLoop=1;jettySize=auto;html=1;exitX=0.5;exitY=1;exitDx=0;exitDy=0;entryX=0;entryY=0.5;entryDx=0;entryDy=0;" parent="1" source="I0EjVSDtgOrj4DoW6K94-42" target="I0EjVSDtgOrj4DoW6K94-45" edge="1">
          <mxGeometry relative="1" as="geometry" />
        </mxCell>
        <mxCell id="I0EjVSDtgOrj4DoW6K94-42" value="Comprar Azucar" style="rounded=0;whiteSpace=wrap;html=1;" parent="1" vertex="1">
          <mxGeometry x="640" y="235" width="120" height="60" as="geometry" />
        </mxCell>
        <mxCell id="I0EjVSDtgOrj4DoW6K94-51" style="edgeStyle=orthogonalEdgeStyle;rounded=0;orthogonalLoop=1;jettySize=auto;html=1;exitX=0.5;exitY=1;exitDx=0;exitDy=0;entryX=1;entryY=0.5;entryDx=0;entryDy=0;" parent="1" source="I0EjVSDtgOrj4DoW6K94-43" target="I0EjVSDtgOrj4DoW6K94-52" edge="1">
          <mxGeometry relative="1" as="geometry">
            <mxPoint x="920" y="550" as="targetPoint" />
          </mxGeometry>
        </mxCell>
        <mxCell id="I0EjVSDtgOrj4DoW6K94-43" value="Llamar una sisterna" style="rounded=0;whiteSpace=wrap;html=1;" parent="1" vertex="1">
          <mxGeometry x="960" y="385" width="120" height="60" as="geometry" />
        </mxCell>
        <mxCell id="I0EjVSDtgOrj4DoW6K94-48" value="F" style="edgeStyle=orthogonalEdgeStyle;rounded=0;orthogonalLoop=1;jettySize=auto;html=1;exitX=1;exitY=0.5;exitDx=0;exitDy=0;entryX=0;entryY=0.5;entryDx=0;entryDy=0;" parent="1" source="I0EjVSDtgOrj4DoW6K94-45" target="I0EjVSDtgOrj4DoW6K94-43" edge="1">
          <mxGeometry relative="1" as="geometry" />
        </mxCell>
        <mxCell id="I0EjVSDtgOrj4DoW6K94-50" value="V" style="edgeStyle=orthogonalEdgeStyle;rounded=0;orthogonalLoop=1;jettySize=auto;html=1;entryX=0.5;entryY=0;entryDx=0;entryDy=0;" parent="1" source="I0EjVSDtgOrj4DoW6K94-45" target="I0EjVSDtgOrj4DoW6K94-52" edge="1">
          <mxGeometry relative="1" as="geometry">
            <mxPoint x="860" y="520" as="targetPoint" />
          </mxGeometry>
        </mxCell>
        <mxCell id="I0EjVSDtgOrj4DoW6K94-45" value="¿Hay&lt;div&gt;agua?&lt;/div&gt;" style="rhombus;whiteSpace=wrap;html=1;" parent="1" vertex="1">
          <mxGeometry x="810" y="370" width="100" height="90" as="geometry" />
        </mxCell>
        <mxCell id="I0EjVSDtgOrj4DoW6K94-54" value="" style="edgeStyle=orthogonalEdgeStyle;rounded=0;orthogonalLoop=1;jettySize=auto;html=1;" parent="1" source="I0EjVSDtgOrj4DoW6K94-52" target="I0EjVSDtgOrj4DoW6K94-53" edge="1">
          <mxGeometry relative="1" as="geometry" />
        </mxCell>
        <mxCell id="I0EjVSDtgOrj4DoW6K94-52" value="Buscar una jarra" style="rounded=0;whiteSpace=wrap;html=1;" parent="1" vertex="1">
          <mxGeometry x="800" y="530" width="120" height="60" as="geometry" />
        </mxCell>
        <mxCell id="I0EjVSDtgOrj4DoW6K94-56" value="" style="edgeStyle=orthogonalEdgeStyle;rounded=0;orthogonalLoop=1;jettySize=auto;html=1;" parent="1" source="I0EjVSDtgOrj4DoW6K94-53" target="I0EjVSDtgOrj4DoW6K94-55" edge="1">
          <mxGeometry relative="1" as="geometry" />
        </mxCell>
        <mxCell id="I0EjVSDtgOrj4DoW6K94-53" value="Preparar&lt;div&gt;Limonada&lt;/div&gt;" style="rounded=0;whiteSpace=wrap;html=1;" parent="1" vertex="1">
          <mxGeometry x="800" y="640" width="120" height="60" as="geometry" />
        </mxCell>
        <mxCell id="I0EjVSDtgOrj4DoW6K94-58" value="" style="edgeStyle=orthogonalEdgeStyle;rounded=0;orthogonalLoop=1;jettySize=auto;html=1;" parent="1" source="I0EjVSDtgOrj4DoW6K94-55" target="I0EjVSDtgOrj4DoW6K94-57" edge="1">
          <mxGeometry relative="1" as="geometry" />
        </mxCell>
        <mxCell id="I0EjVSDtgOrj4DoW6K94-55" value="Servir limonada&lt;div&gt;en vasos&lt;/div&gt;" style="rounded=0;whiteSpace=wrap;html=1;" parent="1" vertex="1">
          <mxGeometry x="800" y="740" width="120" height="60" as="geometry" />
        </mxCell>
        <mxCell id="I0EjVSDtgOrj4DoW6K94-60" value="" style="edgeStyle=orthogonalEdgeStyle;rounded=0;orthogonalLoop=1;jettySize=auto;html=1;" parent="1" source="I0EjVSDtgOrj4DoW6K94-57" target="I0EjVSDtgOrj4DoW6K94-59" edge="1">
          <mxGeometry relative="1" as="geometry" />
        </mxCell>
        <mxCell id="I0EjVSDtgOrj4DoW6K94-57" value="Beber la limonada" style="rounded=0;whiteSpace=wrap;html=1;" parent="1" vertex="1">
          <mxGeometry x="800" y="830" width="120" height="60" as="geometry" />
        </mxCell>
        <mxCell id="I0EjVSDtgOrj4DoW6K94-61" value="V" style="edgeStyle=orthogonalEdgeStyle;rounded=0;orthogonalLoop=1;jettySize=auto;html=1;exitX=0;exitY=0.5;exitDx=0;exitDy=0;entryX=0;entryY=0.5;entryDx=0;entryDy=0;" parent="1" source="I0EjVSDtgOrj4DoW6K94-59" target="I0EjVSDtgOrj4DoW6K94-55" edge="1">
          <mxGeometry relative="1" as="geometry">
            <Array as="points">
              <mxPoint x="750" y="960" />
              <mxPoint x="750" y="770" />
            </Array>
          </mxGeometry>
        </mxCell>
        <mxCell id="I0EjVSDtgOrj4DoW6K94-62" value="F" style="edgeStyle=orthogonalEdgeStyle;rounded=0;orthogonalLoop=1;jettySize=auto;html=1;exitX=1;exitY=0.5;exitDx=0;exitDy=0;entryX=0;entryY=0.5;entryDx=0;entryDy=0;" parent="1" source="I0EjVSDtgOrj4DoW6K94-59" target="I0EjVSDtgOrj4DoW6K94-31" edge="1">
          <mxGeometry relative="1" as="geometry" />
        </mxCell>
        <mxCell id="I0EjVSDtgOrj4DoW6K94-59" value="¿quiero más&lt;div&gt;limonada?&lt;/div&gt;" style="rhombus;whiteSpace=wrap;html=1;" parent="1" vertex="1">
          <mxGeometry x="785" y="920" width="150" height="80" as="geometry" />
        </mxCell>
      </root>
    </mxGraphModel>
  </diagram>
</mxfile>
